<?xml version="1.0" standalone="no"?>
<!DOCTYPE svg PUBLIC "-//W3C//DTD SVG 20010904//EN"
 "http://www.w3.org/TR/2001/REC-SVG-20010904/DTD/svg10.dtd">
<svg version="1.0" xmlns="http://www.w3.org/2000/svg"
 width="1275.000000pt" height="1651.000000pt" viewBox="0 0 1275.000000 1651.000000"
 preserveAspectRatio="xMidYMid meet">
<metadata>
Created by potrace 1.15, written by Peter Selinger 2001-2017
</metadata>
<g transform="translate(0.000000,1651.000000) scale(0.100000,-0.100000)"
fill="#000000" stroke="none">
<path d="M1750 14665 l0 -145 1445 0 1445 0 0 145 0 145 -1445 0 -1445 0 0
-145z m1200 65 c0 -5 -4 -10 -10 -10 -5 0 -10 5 -10 10 0 6 5 10 10 10 6 0 10
-4 10 -10z m500 -10 c23 -23 25 -48 8 -85 -12 -27 -45 -34 -66 -13 -17 17 -15
84 4 102 20 21 30 20 54 -4z m558 -38 c4 -42 -13 -72 -43 -72 -46 0 -64 86
-23 114 30 21 62 1 66 -42z m362 37 c0 -15 4 -19 16 -15 26 10 54 -12 54 -43
0 -36 -17 -50 -58 -49 l-32 1 0 64 c0 35 4 63 10 63 6 0 10 -9 10 -21z m110
-44 c0 -37 -4 -65 -10 -65 -6 0 -10 28 -10 65 0 37 4 65 10 65 6 0 10 -28 10
-65z m-2515 45 c4 -7 -2 -9 -19 -4 -34 8 -56 -10 -56 -47 0 -36 30 -55 61 -38
17 9 20 8 17 -3 -7 -20 -63 -22 -82 -3 -19 19 -21 76 -4 93 15 15 74 16 83 2z
m495 -5 c0 -8 8 -16 18 -16 16 -1 16 -2 0 -6 -12 -3 -18 -14 -18 -33 0 -17 7
-34 18 -40 15 -9 14 -10 -8 -8 -21 3 -26 9 -30 43 -3 22 -4 48 -2 58 5 21 22
23 22 2z m131 -36 l17 -44 16 39 c9 21 16 42 16 47 0 5 6 9 14 9 11 0 9 -14
-11 -60 -35 -80 -38 -80 -73 9 -14 36 -16 51 -8 49 7 -3 20 -25 29 -49z m1021
20 c-3 -20 1 -35 9 -41 11 -7 11 -11 2 -15 -7 -2 -13 -11 -13 -19 0 -8 -4 -14
-10 -14 -5 0 -10 7 -10 15 0 9 -9 15 -25 15 -31 0 -31 11 -2 55 29 45 55 47
49 4z m94 22 c-35 -7 -40 -25 -8 -29 58 -9 47 -82 -13 -82 -19 0 -35 5 -35 10
0 6 13 10 29 10 33 0 49 25 23 38 -9 5 -22 7 -28 5 -7 -2 -14 10 -16 27 -4 29
-4 30 36 29 37 -1 38 -2 12 -8z m162 2 c-33 -5 -37 -30 -7 -35 30 -4 47 -33
33 -55 -12 -20 -84 -31 -84 -14 0 6 13 11 29 11 17 0 33 5 37 12 9 14 -23 38
-42 31 -10 -4 -14 3 -14 26 0 29 2 31 38 30 30 -2 32 -3 10 -6z m332 -8 c0 -8
10 -16 23 -16 l22 -2 -22 -4 c-17 -3 -23 -11 -23 -33 0 -20 6 -30 23 -35 20
-6 20 -8 3 -12 -34 -9 -51 28 -47 100 1 21 21 23 21 2z m-50 -15 c12 -8 9 -10
-12 -10 -35 0 -36 -13 -2 -29 36 -16 28 -45 -14 -49 -18 -2 -32 1 -32 7 0 6
10 10 21 8 30 -3 36 21 7 25 -15 2 -24 11 -26 25 -3 19 4 25 38 32 3 0 12 -4
20 -9z m172 -14 c4 -6 8 -25 8 -42 0 -28 -3 -31 -34 -32 -41 -2 -65 20 -46 43
7 8 23 15 37 15 15 0 22 4 17 11 -3 6 -17 9 -30 6 -27 -5 -33 9 -6 15 21 5 45
-2 54 -16z m258 4 c30 -30 24 -40 -22 -40 -40 -1 -42 -2 -24 -15 11 -8 28 -13
38 -9 10 3 18 1 18 -5 0 -21 -58 -12 -74 11 -9 12 -16 26 -16 30 0 11 38 48
50 48 6 0 19 -9 30 -20z m-2568 -27 c2 -26 8 -38 18 -38 10 0 16 12 18 38 4
52 22 47 22 -7 l0 -44 -37 1 c-37 2 -38 3 -41 45 -2 23 1 42 7 42 5 0 11 -17
13 -37z m198 30 c-21 -8 -30 -24 -30 -55 0 -16 -4 -28 -10 -28 -5 0 -10 18
-10 41 0 33 -3 40 -17 37 -13 -2 -19 -14 -21 -41 -4 -52 -22 -46 -22 8 l0 45
63 -1 c34 0 55 -3 47 -6z m98 -20 c3 -20 -1 -23 -34 -23 -32 0 -35 -2 -23 -16
8 -10 21 -13 36 -9 13 3 23 1 23 -5 0 -5 -16 -10 -35 -10 -43 0 -65 33 -45 69
16 31 74 26 78 -6z m106 5 c9 -34 7 -68 -3 -68 -6 0 -11 17 -13 38 -2 29 -7
37 -23 37 -16 0 -21 -8 -23 -37 -4 -53 -22 -47 -22 7 l0 45 39 0 c32 0 40 -4
45 -22z m334 -5 c3 -20 -1 -23 -34 -23 -32 0 -35 -2 -23 -16 8 -10 21 -13 36
-9 13 3 23 1 23 -5 0 -5 -16 -10 -35 -10 -43 0 -65 33 -45 69 16 31 74 26 78
-6z m65 17 c-18 -7 -23 -17 -23 -45 0 -19 -4 -35 -10 -35 -5 0 -10 20 -10 45
0 44 1 45 33 44 29 0 30 -1 10 -9z m77 3 c-40 -7 -44 -20 -10 -32 42 -14 38
-45 -8 -49 -17 -2 -32 1 -32 6 0 6 8 8 19 5 30 -8 35 16 7 27 -16 6 -26 17
-26 30 0 17 6 20 38 19 27 -1 30 -3 12 -6z m60 -38 c0 -25 -4 -45 -10 -45 -5
0 -10 20 -10 45 0 25 5 45 10 45 6 0 10 -20 10 -45z m106 18 c9 -34 -6 -57
-39 -61 -20 -3 -30 3 -38 21 -16 36 3 67 41 67 24 0 31 -5 36 -27z m108 5 c9
-34 7 -68 -3 -68 -6 0 -11 17 -13 38 -2 29 -7 37 -23 37 -16 0 -21 -8 -23 -37
-4 -53 -22 -47 -22 7 l0 45 39 0 c32 0 40 -4 45 -22z m139 -10 l13 -32 13 32
c7 18 18 32 23 32 6 0 7 -8 3 -17 -4 -10 -12 -30 -17 -45 -14 -40 -31 -34 -50
17 -19 51 -5 63 15 13z m767 -8 c0 -5 -12 -10 -26 -10 -14 0 -23 4 -19 10 3 6
15 10 26 10 10 0 19 -4 19 -10z m-550 -40 c0 -5 -7 -10 -15 -10 -8 0 -15 5
-15 10 0 6 7 10 15 10 8 0 15 -4 15 -10z m270 0 c0 -5 -7 -10 -15 -10 -8 0
-15 5 -15 10 0 6 7 10 15 10 8 0 15 -4 15 -10z"/>
<path d="M3407 14713 c-13 -12 -7 -70 8 -83 12 -10 16 -8 25 15 13 34 13 48
-2 63 -14 14 -22 15 -31 5z"/>
<path d="M3947 14713 c-13 -12 -7 -70 8 -83 12 -10 17 -8 26 13 20 44 -7 98
-34 70z"/>
<path d="M4376 14675 c-9 -23 11 -56 30 -48 20 7 14 57 -7 61 -9 2 -19 -4 -23
-13z"/>
<path d="M3571 14682 c-14 -27 -12 -35 8 -23 7 5 11 17 9 27 -4 17 -5 17 -17
-4z"/>
<path d="M4260 14641 c0 -19 22 -23 38 -7 15 15 14 16 -11 16 -15 0 -27 -4
-27 -9z"/>
<path d="M4535 14680 c-4 -6 5 -10 20 -10 15 0 24 4 20 10 -3 6 -12 10 -20 10
-8 0 -17 -4 -20 -10z"/>
<path d="M2245 14680 c-4 -6 5 -10 20 -10 15 0 24 4 20 10 -3 6 -12 10 -20 10
-8 0 -17 -4 -20 -10z"/>
<path d="M2685 14680 c-4 -6 5 -10 20 -10 15 0 24 4 20 10 -3 6 -12 10 -20 10
-8 0 -17 -4 -20 -10z"/>
<path d="M2995 14669 c-9 -27 19 -59 36 -42 15 15 7 57 -13 61 -10 2 -19 -6
-23 -19z"/>
</g>
</svg>
